<svg width="32" height="8" viewBox="0 0 32 8" fill="none" xmlns="http://www.w3.org/2000/svg">
<path d="M1 3.5C0.723858 3.5 0.5 3.72386 0.5 4C0.5 4.27614 0.723858 4.5 1 4.5V3.5ZM31.3536 4.35355C31.5488 4.15829 31.5488 3.84171 31.3536 3.64645L28.1716 0.464466C27.9763 0.269204 27.6597 0.269204 27.4645 0.464466C27.2692 0.659728 27.2692 0.976311 27.4645 1.17157L30.2929 4L27.4645 6.82843C27.2692 7.02369 27.2692 7.34027 27.4645 7.53553C27.6597 7.7308 27.9763 7.7308 28.1716 7.53553L31.3536 4.35355ZM1.9375 4.5C2.21364 4.5 2.4375 4.27614 2.4375 4C2.4375 3.72386 2.21364 3.5 1.9375 3.5V4.5ZM3.8125 3.5C3.53636 3.5 3.3125 3.72386 3.3125 4C3.3125 4.27614 3.53636 4.5 3.8125 4.5V3.5ZM5.6875 4.5C5.96364 4.5 6.1875 4.27614 6.1875 4C6.1875 3.72386 5.96364 3.5 5.6875 3.5V4.5ZM7.5625 3.5C7.28636 3.5 7.0625 3.72386 7.0625 4C7.0625 4.27614 7.28636 4.5 7.5625 4.5V3.5ZM9.4375 4.5C9.71364 4.5 9.9375 4.27614 9.9375 4C9.9375 3.72386 9.71364 3.5 9.4375 3.5V4.5ZM11.3125 3.5C11.0364 3.5 10.8125 3.72386 10.8125 4C10.8125 4.27614 11.0364 4.5 11.3125 4.5V3.5ZM13.1875 4.5C13.4636 4.5 13.6875 4.27614 13.6875 4C13.6875 3.72386 13.4636 3.5 13.1875 3.5V4.5ZM15.0625 3.5C14.7864 3.5 14.5625 3.72386 14.5625 4C14.5625 4.27614 14.7864 4.5 15.0625 4.5V3.5ZM16.9375 4.5C17.2136 4.5 17.4375 4.27614 17.4375 4C17.4375 3.72386 17.2136 3.5 16.9375 3.5V4.5ZM18.8125 3.5C18.5364 3.5 18.3125 3.72386 18.3125 4C18.3125 4.27614 18.5364 4.5 18.8125 4.5V3.5ZM20.6875 4.5C20.9636 4.5 21.1875 4.27614 21.1875 4C21.1875 3.72386 20.9636 3.5 20.6875 3.5V4.5ZM22.5625 3.5C22.2864 3.5 22.0625 3.72386 22.0625 4C22.0625 4.27614 22.2864 4.5 22.5625 4.5V3.5ZM24.4375 4.5C24.7136 4.5 24.9375 4.27614 24.9375 4C24.9375 3.72386 24.7136 3.5 24.4375 3.5V4.5ZM26.3125 3.5C26.0364 3.5 25.8125 3.72386 25.8125 4C25.8125 4.27614 26.0364 4.5 26.3125 4.5V3.5ZM28.1875 4.5C28.4636 4.5 28.6875 4.27614 28.6875 4C28.6875 3.72386 28.4636 3.5 28.1875 3.5V4.5ZM30.0625 3.5C29.7864 3.5 29.5625 3.72386 29.5625 4C29.5625 4.27614 29.7864 4.5 30.0625 4.5V3.5ZM1 4.5H1.9375V3.5H1V4.5ZM3.8125 4.5H5.6875V3.5H3.8125V4.5ZM7.5625 4.5H9.4375V3.5H7.5625V4.5ZM11.3125 4.5H13.1875V3.5H11.3125V4.5ZM15.0625 4.5H16.9375V3.5H15.0625V4.5ZM18.8125 4.5H20.6875V3.5H18.8125V4.5ZM22.5625 4.5H24.4375V3.5H22.5625V4.5ZM26.3125 4.5H28.1875V3.5H26.3125V4.5ZM30.0625 4.5H31V3.5H30.0625V4.5Z" fill="#A2D0FA"/>
</svg>
